<svg id="Layer_1" data-name="Layer 1" xmlns="http://www.w3.org/2000/svg" viewBox="0 0 542.06 138.09"><defs><style>.cls-1{fill:#03acb8;}</style></defs><title>Fincity logo</title><rect class="cls-1" x="392.71" y="34.67" width="20.22" height="74.42"/><rect class="cls-1" x="392.71" y="5.41" width="20.22" height="16.27"/><rect class="cls-1" x="210.14" y="5.41" width="20.22" height="16.27"/><path class="cls-1" d="M665.65,238l-16.14,52.4L633.22,238h-35.8V209.56H577.2V238H562.41v14.79H577.2v37.76h0c.38,15.85,11.62,24.22,24.81,25.78a58.4,58.4,0,0,0,25.35-3.1L623,299a32.17,32.17,0,0,1-15.81,1.4c-10-1.21-9.78-11.79-9.78-11.79V252.81h21.51l17.71,57.06h7.31a17.91,17.91,0,0,1-15.28,16.2h-16.8l5.41,16.17h14.39s18.79-.4,25.36-16.59c5.54-13.59,5.51-15.76,5.51-15.78L684.61,238Z" transform="translate(-142.55 -204.15)"/><path class="cls-1" d="M431.55,238a29.06,29.06,0,0,0-19.36,6.64c-2.64,2.11-7.05,5.81-9.57,7.92V238.83H382.4v74.46h20.22V264.9c3.3-3,8-7.29,10.19-9a13.47,13.47,0,0,1,8.19-2.12c9,0,10.57,9.81,10.57,9.81v49.74h20.22V261.6C451.77,256.24,445.75,238.83,431.55,238Z" transform="translate(-142.55 -204.15)"/><path class="cls-1" d="M487.33,253.74h13s9.17,2.12,9.17,11.31h17.88s.14-13.19-10.57-20.56c-9.4-6.55-14.94-6.51-20.56-6.51h-8.92c-7.16,0-28.23,6.85-28.59,24.83h0v25.36h0c.24,18.12,21.43,25,28.61,25h9c5.63,0,11.16,0,20.56-6.48a26,26,0,0,0,10.42-18.85H509.39c-1,7.79-9,9.59-9,9.59h-13c-7.67-1.44-8.45-10.06-8.45-10.06V263.8S479.66,255.16,487.33,253.74Z" transform="translate(-142.55 -204.15)"/><path class="cls-1" d="M323.87,234.58h0a10.71,10.71,0,0,1,9.91-11h9V209.41H327.23s-11.33,1.33-16.69,7.08a24.57,24.57,0,0,0-6.87,18.09h0V238h-16v14.79h16.08v60.48H324V252.86h28.82v60.43H373V238.06H323.87Z" transform="translate(-142.55 -204.15)"/><polygon class="cls-1" points="536.8 5.26 533.67 16.31 530.52 5.26 526.74 5.26 525.28 5.26 508.06 5.26 508.06 8.01 514.27 8.01 514.27 21.47 518.52 21.47 518.52 8.01 525.28 8.01 525.28 21.47 528.53 21.47 528.53 8.71 531.98 21.47 535.34 21.47 538.8 8.71 538.8 21.47 542.06 21.47 542.06 5.26 536.8 5.26"/><polygon class="cls-1" points="19.5 117.72 135.76 117.72 135.76 1.69 75.33 1.69 80.97 10.38 127.08 10.38 127.08 109.01 19.5 109.01 19.5 117.72"/><polygon class="cls-1" points="66.22 101.36 88.52 63.62 82.56 54.33 54.79 101.36 44.69 101.36 82.26 37.74 98.72 63.43 76.32 101.36 66.22 101.36"/><polygon class="cls-1" points="110.91 101.36 104.95 92.06 99.48 101.36 89.38 101.36 104.66 75.48 121.12 101.17 121.01 101.36 110.91 101.36"/><polygon class="cls-1" points="11.88 117.72 66.1 25.89 60.14 16.59 10.1 101.36 0 101.36 59.84 0 76.3 25.7 21.98 117.72 11.88 117.72"/></svg>