<svg width="140" height="120" xmlns="http://www.w3.org/2000/svg">
 <defs>
  <style>.cls-1{fill:#fff;}</style>
 </defs>
 <title>logo</title>
 <g>
  <title>background</title>
  <rect fill="none" id="canvas_background" height="120" width="140" y="-1" x="-1"/>
 </g>
 <g>
  <title>Layer 1</title>
  <polygon id="svg_9" points="21.5,119.72000122070312 137.75999450683594,119.72000122070312 137.75999450683594,3.690000057220459 77.33000183105469,3.690000057220459 82.97000122070312,12.380000114440918 129.0800018310547,12.380000114440918 129.0800018310547,111.01000213623047 21.5,111.01000213623047 21.5,119.72000122070312 " class="cls-1"/>
  <polygon id="svg_10" points="68.22000122070312,103.36000061035156 90.5199966430664,65.6199951171875 84.55999755859375,56.33000183105469 56.790000915527344,103.36000061035156 46.689998626708984,103.36000061035156 84.26000213623047,39.7400016784668 100.72000122070312,65.43000030517578 78.31999969482422,103.36000061035156 68.22000122070312,103.36000061035156 " class="cls-1"/>
  <polygon id="svg_11" points="112.91000366210938,103.36000061035156 106.94999694824219,94.05999755859375 101.4800033569336,103.36000061035156 91.37999725341797,103.36000061035156 106.66000366210938,77.4800033569336 123.12000274658203,103.16999816894531 123.01000213623047,103.36000061035156 112.91000366210938,103.36000061035156 " class="cls-1"/>
  <polygon id="svg_12" points="13.880000114440918,119.72000122070312 68.0999984741211,27.889999389648438 62.13999938964844,18.59000015258789 12.100000381469727,103.36000061035156 2,103.36000061035156 61.84000015258789,2 78.30000305175781,27.700000762939453 23.979999542236328,119.72000122070312 13.880000114440918,119.72000122070312 " class="cls-1"/>
  <path id="svg_14" d="m2.529999,2.482498" opacity="0.5" stroke-width="1.5" stroke="#000" fill="#fff"/>
 </g>
</svg>